<svg width="170" height="42" viewBox="0 0 170 42" fill="none" xmlns="http://www.w3.org/2000/svg">
<g clip-path="url(#clip0_317_1389)">
<path d="M166.257 21.9394C166.257 33.0146 157.288 41.9928 146.224 41.9928C135.16 41.9928 126.191 33.0146 126.191 21.9394C126.191 10.8641 135.16 1.88599 146.224 1.88599C157.288 1.88599 166.257 10.8641 166.257 21.9394Z" fill="#0A1F8F"/>
<path d="M42.0591 21.9247C42.0591 33 51.0281 41.9781 62.092 41.9781C73.156 41.9781 82.125 33 82.125 21.9247C82.125 10.8495 73.156 1.87134 62.092 1.87134C51.0281 1.87134 42.0591 10.8495 42.0591 21.9247Z" fill="#0A1F8F"/>
<path d="M75.9348 21.8957C75.9348 29.5486 69.7373 35.7525 62.0922 35.7525C54.4471 35.7525 48.2495 29.5486 48.2495 21.8957C48.2495 14.2427 54.4471 8.04614 62.0922 8.04614C69.7373 8.04614 75.9348 14.25 75.9348 21.8957Z" fill="white"/>
<path d="M68.7477 21.8957C68.7477 25.5801 65.7653 28.5583 62.0919 28.5583C58.4184 28.5583 55.436 25.5728 55.436 21.8957C55.436 18.2185 58.4184 15.233 62.0919 15.233C65.7653 15.233 68.7477 18.2112 68.7477 21.8957Z" fill="#0A1F8F"/>
<path d="M0 21.6918C0 32.7671 8.969 41.7452 20.0257 41.7452C31.0823 41.7452 40.0586 32.7671 40.0586 21.6918C40.0586 10.6166 31.0896 1.63843 20.0257 1.63843C8.96173 1.63843 0 10.6166 0 21.6918Z" fill="#0A1F8F"/>
<path d="M32.0861 35.2937L15.0356 18.4515L15.1519 35.7597H7.79053V15.4151L14.8028 8.39566L23.91 17.1626V8.04614L32.0352 8.16265L32.0861 35.2937Z" fill="white"/>
<path d="M124.191 21.517C124.191 32.5923 115.222 41.5704 104.158 41.5704C93.0945 41.5704 84.1328 32.5923 84.1328 21.517C84.1328 10.4418 93.0945 1.46362 104.151 1.46362C115.208 1.46362 124.184 10.4418 124.184 21.517" fill="#0A1F8F"/>
<path d="M91.7632 26.9199V35.7525L109.636 18.3423V25.6966H104.5L98.0699 32.1262L109.396 32.068V35.6869H116.502V8.04614H109.396L91.7632 26.9199Z" fill="white"/>
<path d="M152.909 13.9807L157.398 8.0462C157.398 8.0462 147.257 8.03892 145.468 8.0462C142.58 8.06077 136.928 9.96853 136.928 16.238C136.928 21.1093 140.194 23.5705 142.653 24.4006C144.362 24.9831 145.657 24.9176 146.93 25.1214C148.319 25.3472 148.865 26.4758 148.865 27.335C148.865 28.6457 148.188 29.7234 146.661 29.8108C143.824 29.8545 139.052 30.0365 139.052 30.0365L135.779 35.7234C135.779 35.7234 143.14 35.8399 147.65 35.6214C150.487 35.4831 154.902 32.92 155.259 27.5098C155.441 24.6773 154.451 18.8083 145.621 18.8083C143.904 18.7647 142.871 17.6797 142.922 16.238C142.987 14.5778 144.5 13.9515 145.635 13.937C146.77 13.9224 152.917 13.9807 152.917 13.9807" fill="white"/>
<path fill-rule="evenodd" clip-rule="evenodd" d="M167.218 2.8034C167.218 2.35194 166.898 2.12621 166.25 2.12621H165.341V3.53155H166.061C166.447 3.53155 166.709 3.50243 166.861 3.44417C167.101 3.33495 167.225 3.12379 167.225 2.8034H167.218ZM168.011 5.98544H167.276L166.076 4.08495H165.348V5.98544H164.665V1.56553H166.374C167.4 1.56553 167.916 1.98786 167.916 2.83252C167.916 3.5534 167.531 3.95388 166.759 4.03398L168.018 5.98544H168.011ZM169.233 3.76456C169.233 3.10922 169.065 2.51942 168.724 1.99515C168.396 1.46359 167.938 1.06311 167.349 0.800971C166.97 0.640777 166.563 0.56068 166.127 0.56068C165.225 0.56068 164.475 0.873786 163.886 1.5C163.297 2.11893 163.006 2.87621 163.006 3.76456C163.006 4.43447 163.173 5.02427 163.501 5.55583C163.828 6.10194 164.294 6.50243 164.897 6.76456C165.276 6.93204 165.683 7.01214 166.134 7.01214C167.036 7.01214 167.785 6.69175 168.374 6.05097C168.942 5.42476 169.233 4.66019 169.233 3.76456ZM169.916 3.76456C169.916 4.82767 169.545 5.73058 168.804 6.46602C168.069 7.20146 167.181 7.57281 166.127 7.57281C165.072 7.57281 164.155 7.20146 163.421 6.46602C162.686 5.7233 162.322 4.82767 162.322 3.76456C162.322 2.70146 162.693 1.82039 163.442 1.09223C164.192 0.364078 165.094 0 166.134 0C167.174 0 168.083 0.371359 168.818 1.1068C169.553 1.83495 169.916 2.7233 169.916 3.76456Z" fill="#0A1F8F"/>
</g>
<defs>
<clipPath id="clip0_317_1389">
<rect width="169.909" height="42" fill="white"/>
</clipPath>
</defs>
</svg>
